<?xml version="1.0" encoding="utf-8"?>
<!-- Generator: Adobe Illustrator 21.1.0, SVG Export Plug-In . SVG Version: 6.00 Build 0)  -->
<svg version="1.1" id="Layer_1" xmlns="http://www.w3.org/2000/svg" xmlns:xlink="http://www.w3.org/1999/xlink" x="0px" y="0px"
	 viewBox="0 0 192.8 192.8" style="enable-background:new 0 0 192.8 192.8;" xml:space="preserve">
<style type="text/css">
	.st0{clip-path:url(#SVGID_2_);}
	.st1{clip-path:url(#SVGID_5_);}
	.st2{clip-path:url(#SVGID_6_);}
	.st3{clip-path:url(#SVGID_9_);}
	.st4{clip-path:url(#SVGID_13_);}
	.st5{clip-path:url(#SVGID_14_);}
	.st6{fill:url(#path4149_2_);}
	.st7{fill:url(#path4149_4_);}
	.st8{clip-path:url(#SVGID_17_);}
	.st9{clip-path:url(#SVGID_18_);}
	.st10{fill:url(#path4161_2_);}
	.st11{fill:url(#path4161_4_);}
	.st12{clip-path:url(#SVGID_21_);}
	.st13{clip-path:url(#SVGID_22_);}
	.st14{fill:url(#path4173_2_);}
	.st15{fill:url(#path4173_4_);}
	.st16{clip-path:url(#SVGID_25_);}
	.st17{clip-path:url(#SVGID_26_);}
	.st18{fill:url(#path4185_2_);}
	.st19{fill:url(#path4185_4_);}
	.st20{fill:#C2C5D6;}
</style>
<g>
	<g>
		<g>
			<g>
				<defs>
					<path id="SVGID_1_" d="M212.9,307"/>
				</defs>
				<clipPath id="SVGID_2_">
					<use xlink:href="#SVGID_1_"  style="overflow:visible;"/>
				</clipPath>
				<g class="st0">
					<g>
						<g>
							<defs>
								<path id="SVGID_3_" d="M212.9,388.9"/>
							</defs>
							<defs>
								<path id="SVGID_4_" d="M212.9,307"/>
							</defs>
							<clipPath id="SVGID_5_">
								<use xlink:href="#SVGID_3_"  style="overflow:visible;"/>
							</clipPath>
							<clipPath id="SVGID_6_" class="st1">
								<use xlink:href="#SVGID_4_"  style="overflow:visible;"/>
							</clipPath>
							<g class="st2">
								<g>
									<g>
										<g>
											<g id="g4127_1_">
												<defs>
													<path id="SVGID_7_" d="M212.9,388.9"/>
												</defs>
												<defs>
													<path id="SVGID_8_" d="M212.9,307"/>
												</defs>
												<clipPath id="SVGID_9_">
													<use xlink:href="#SVGID_7_"  style="overflow:visible;"/>
												</clipPath>
												<clipPath id="SVGID_10_" class="st3">
													<use xlink:href="#SVGID_8_"  style="overflow:visible;"/>
												</clipPath>
											</g>
											<g>
												<g>
													<g>
														<g id="g4139_1_">
															<defs>
																<path id="SVGID_11_" d="M212.9,388.9"/>
															</defs>
															<defs>
																<path id="SVGID_12_" d="M212.9,307"/>
															</defs>
															<clipPath id="SVGID_13_">
																<use xlink:href="#SVGID_11_"  style="overflow:visible;"/>
															</clipPath>
															<clipPath id="SVGID_14_" class="st4">
																<use xlink:href="#SVGID_12_"  style="overflow:visible;"/>
															</clipPath>
															<g id="g4141_1_" class="st5">
																<g id="g4143_1_">
																	<g id="g4145_1_">
																		<g id="g4147_1_">
																			
																				<linearGradient id="path4149_2_" gradientUnits="userSpaceOnUse" x1="131.1521" y1="262.8196" x2="131.1521" y2="262.8196" gradientTransform="matrix(0 -21.3924 -21.3924 0 5835.2666 3194.5723)">
																				<stop  offset="0" style="stop-color:#729BC7"/>
																				<stop  offset="1" style="stop-color:#547395"/>
																			</linearGradient>
																			<path id="path4149_3_" class="st6" d="M212.9,388.9"/>
																			
																				<linearGradient id="path4149_4_" gradientUnits="userSpaceOnUse" x1="134.979" y1="262.8196" x2="134.979" y2="262.8196" gradientTransform="matrix(0 -21.3924 -21.3924 0 5835.2666 3194.5723)">
																				<stop  offset="0" style="stop-color:#729BC7"/>
																				<stop  offset="1" style="stop-color:#547395"/>
																			</linearGradient>
																			<path id="path4149_1_" class="st7" d="M212.9,307"/>
																		</g>
																	</g>
																</g>
															</g>
														</g>
														<g>
															<g>
																<g>
																	<g id="g4151_1_">
																		<defs>
																			<path id="SVGID_15_" d="M212.9,388.9"/>
																		</defs>
																		<defs>
																			<path id="SVGID_16_" d="M212.9,307"/>
																		</defs>
																		<clipPath id="SVGID_17_">
																			<use xlink:href="#SVGID_15_"  style="overflow:visible;"/>
																		</clipPath>
																		<clipPath id="SVGID_18_" class="st8">
																			<use xlink:href="#SVGID_16_"  style="overflow:visible;"/>
																		</clipPath>
																		<g id="g4153_1_" class="st9">
																			<g id="g4155_1_">
																				<g id="g4157_1_">
																					<g id="g4159_1_">
																						
																							<linearGradient id="path4161_2_" gradientUnits="userSpaceOnUse" x1="130.9542" y1="261.3151" x2="130.9542" y2="261.3151" gradientTransform="matrix(0 -21.5726 -21.5726 0 5850.1738 3213.9385)">
																							<stop  offset="0" style="stop-color:#729BC7"/>
																							<stop  offset="1" style="stop-color:#547395"/>
																						</linearGradient>
																						<path id="path4161_3_" class="st10" d="M212.9,388.9"/>
																						
																							<linearGradient id="path4161_4_" gradientUnits="userSpaceOnUse" x1="134.7491" y1="261.3151" x2="134.7491" y2="261.3151" gradientTransform="matrix(0 -21.5726 -21.5726 0 5850.1738 3213.9385)">
																							<stop  offset="0" style="stop-color:#729BC7"/>
																							<stop  offset="1" style="stop-color:#547395"/>
																						</linearGradient>
																						<path id="path4161_1_" class="st11" d="M212.9,307"/>
																					</g>
																				</g>
																			</g>
																		</g>
																	</g>
																	<g>
																		<g>
																			<g id="g3309_1_" transform="matrix(1.25,0,0,-1.25,-134.32894,522.81)">
																				<g id="g4163_1_">
																					<defs>
																						<path id="SVGID_19_" d="M212.9,388.9"/>
																					</defs>
																					<defs>
																						<path id="SVGID_20_" d="M212.9,307"/>
																					</defs>
																					<clipPath id="SVGID_21_">
																						<use xlink:href="#SVGID_19_"  style="overflow:visible;"/>
																					</clipPath>
																					<clipPath id="SVGID_22_" class="st12">
																						<use xlink:href="#SVGID_20_"  style="overflow:visible;"/>
																					</clipPath>
																					<g id="g4165_1_" class="st13">
																						<g id="g4167_1_">
																							<g id="g4169_1_">
																								<g id="g4171_1_">
																									
																										<linearGradient id="path4173_2_" gradientUnits="userSpaceOnUse" x1="129.0757" y1="264.3229" x2="129.0757" y2="264.3229" gradientTransform="matrix(0 -23.5246 -23.5246 0 6431.0083 3425.3657)">
																										<stop  offset="0" style="stop-color:#729BC7"/>
																										<stop  offset="1" style="stop-color:#547395"/>
																									</linearGradient>
																									<path id="path4173_3_" class="st14" d="M212.9,388.9"/>
																									
																										<linearGradient id="path4173_4_" gradientUnits="userSpaceOnUse" x1="132.5558" y1="264.3229" x2="132.5558" y2="264.3229" gradientTransform="matrix(0 -23.5246 -23.5246 0 6431.0083 3425.3657)">
																										<stop  offset="0" style="stop-color:#729BC7"/>
																										<stop  offset="1" style="stop-color:#547395"/>
																									</linearGradient>
																									<path id="path4173_1_" class="st15" d="M212.9,307"/>
																								</g>
																							</g>
																						</g>
																					</g>
																				</g>
																				<g id="g3313_1_">
																					<g id="g3315_1_">
																						<g id="g3835_1_">
																							<g id="g4175_1_">
																								<defs>
																									<path id="SVGID_23_" d="M212.9,388.9"/>
																								</defs>
																								<defs>
																									<path id="SVGID_24_" d="M212.9,307"/>
																								</defs>
																								<clipPath id="SVGID_25_">
																									<use xlink:href="#SVGID_23_"  style="overflow:visible;"/>
																								</clipPath>
																								<clipPath id="SVGID_26_" class="st16">
																									<use xlink:href="#SVGID_24_"  style="overflow:visible;"/>
																								</clipPath>
																								<g id="g4177_1_" class="st17">
																									<g id="g4179_1_">
																										<g id="g4181_1_">
																											<g id="g4183_1_">
																												
																													<linearGradient id="path4185_2_" gradientUnits="userSpaceOnUse" x1="216.7281" y1="264.7516" x2="216.7281" y2="264.7516" gradientTransform="matrix(0 -4.5805 -4.5805 0 1425.6084 1381.6293)">
																													<stop  offset="0" style="stop-color:#729BC7"/>
																													<stop  offset="1" style="stop-color:#547395"/>
																												</linearGradient>
																												<path id="path4185_3_" class="st18" d="M212.9,388.9"/>
																												
																													<linearGradient id="path4185_4_" gradientUnits="userSpaceOnUse" x1="234.6012" y1="264.7516" x2="234.6012" y2="264.7516" gradientTransform="matrix(0 -4.5805 -4.5805 0 1425.6084 1381.6293)">
																													<stop  offset="0" style="stop-color:#729BC7"/>
																													<stop  offset="1" style="stop-color:#547395"/>
																												</linearGradient>
																												<path id="path4185_1_" class="st19" d="M212.9,307"/>
																											</g>
																										</g>
																									</g>
																								</g>
																							</g>
																						</g>
																					</g>
																				</g>
																			</g>
																		</g>
																	</g>
																</g>
															</g>
														</g>
													</g>
												</g>
											</g>
										</g>
									</g>
								</g>
							</g>
						</g>
					</g>
				</g>
			</g>
		</g>
	</g>
</g>
<g>
	<g>
		<path class="st20" d="M119.2,42.9c12.7,5.4,21.9,14.1,28.3,25.7c-6.2,9-12.1,18.2-18.5,27C125.9,77.9,122.4,60.5,119.2,42.9z"/>
		<path class="st20" d="M38.1,98.1c0-1.2,0-2.3,0-3.5c0.3-5.5,1.1-10.6,2.5-15c10.9-2,21.7-4.2,32.5-6.3
			C63,88.6,52.9,103.9,42.7,119.1C40.2,113.1,38.5,106.2,38.1,98.1z"/>
		<path class="st20" d="M154.7,94.7c0,1.2,0,2.3,0,3.5c-0.3,5.5-1.1,10.6-2.5,15c-11.1,2-21.9,4.2-32.9,6.3
			c10.2-15.1,20.6-30.8,30.8-45.5C152.6,79.9,154.3,86.6,154.7,94.7z"/>
		<path class="st20" d="M64.1,96.2c3.4,17.9,6.7,35.9,9.9,53.9c-12.6-5.4-22-14.1-28.6-25.6C51.5,115,57.8,105.6,64.1,96.2z"/>
		<path class="st20" d="M150,118.6c0.1,0,0.2,0,0.2,0c-5.5,13-14.4,22.5-26.3,29.2c-8.1-5.3-16.4-10.9-24.4-16.4
			c-1.1-0.8-2.1-1.5-3.2-2.4C114.3,125.6,132.1,122.1,150,118.6z"/>
		<path class="st20" d="M94.7,38.1c1.2,0,2.3,0,3.5,0c5.7,0.4,11.1,1.1,15.5,2.7c2.1,10.5,4,21.3,6.1,31.8
			C104.8,62.4,89.7,52.5,75,42.1C80.7,40,87.1,38.5,94.7,38.1z"/>
		<path class="st20" d="M94.7,154.7c-5.6-0.4-10.8-1.1-15.2-2.6c-1.8-10.8-3.9-21.4-5.8-32c15,10.1,30.1,20,44.8,30.4
			c-5.9,2.3-12.4,3.9-20.2,4.3C97,154.7,95.8,154.7,94.7,154.7z"/>
		<path class="st20" d="M54.2,56c0.8-0.8,1.6-1.6,2.5-2.4c4.1-3.6,8.3-6.7,12.4-8.8c9.1,6.3,18.2,12.4,27.3,18.7
			c-18,3.5-35.9,7.1-53.9,10.5C45,68,48.7,62,54.2,56z"/>
	</g>
</g>
</svg>
