<?xml version="1.0" encoding="utf-8"?>
<!-- Generator: Adobe Illustrator 21.1.0, SVG Export Plug-In . SVG Version: 6.00 Build 0)  -->
<svg version="1.1" id="Layer_1" xmlns="http://www.w3.org/2000/svg" xmlns:xlink="http://www.w3.org/1999/xlink" x="0px" y="0px"
	 viewBox="0 0 192.8 192.8" style="enable-background:new 0 0 192.8 192.8;" xml:space="preserve">
<style type="text/css">
	.st0{fill:#C6C6C6;}
</style>
<g>
	<path class="st0" d="M60.4,46.2c24,0,48,0,72.1,0c0,0.2,0,0.4,0,0.5c0,25.9,0,51.8,0,77.7c0,0.4-0.1,0.6-0.4,0.8
		c-11.8,7.1-23.6,14.2-35.3,21.3c-0.3,0.2-0.4,0.1-0.7,0c-11.7-7-23.5-14.1-35.2-21.1c-0.3-0.2-0.4-0.4-0.4-0.7c0-26,0-52,0-78
		C60.4,46.5,60.4,46.4,60.4,46.2z M101.1,71.1c-0.3,0.2-0.4,0.3-0.6,0.4C89,78.3,77.5,85.1,66,92c-0.3,0.2-0.4,0.4-0.4,0.8
		c0,5.7,0,11.5,0,17.2c0,0.2,0,0.3,0,0.6c0.2-0.1,0.3-0.2,0.4-0.2c12.2-7.3,24.4-14.6,36.7-21.9c8-4.8,16.1-9.6,24.1-14.4
		c0.3-0.2,0.4-0.3,0.4-0.7c0-1.5,0-3.1,0-4.6c0-0.3-0.1-0.4-0.3-0.6c-10-5.9-20.1-11.9-30.1-17.8c-0.3-0.2-0.5-0.2-0.8,0
		C86,56.2,76,62,66,67.9c-0.3,0.2-0.4,0.4-0.4,0.8c0,5.7,0,11.5,0,17.2c0,0.2,0,0.3,0,0.5c0.2-0.1,0.4-0.2,0.5-0.3
		c6.7-4,13.4-8,20.2-12c3.2-1.9,6.5-3.9,9.7-5.8c0.2-0.1,0.5-0.2,0.6-0.1C98.1,69.2,99.5,70.1,101.1,71.1z M127.2,103.8
		c-0.2,0.1-0.4,0.2-0.5,0.3c-4.9,2.9-9.8,5.9-14.8,8.8c-5.1,3-10.1,6-15.2,9.1c-0.3,0.2-0.4,0.2-0.7,0c-0.5-0.3-0.9-0.6-1.4-0.9
		c-1-0.6-2-1.2-3.1-1.9c0.3-0.2,0.5-0.3,0.7-0.4c11.5-6.9,23-13.7,34.5-20.6c0.3-0.2,0.5-0.3,0.5-0.7c0-5.7,0-11.4,0-17.2
		c0-0.1,0-0.3,0-0.4c-0.3,0.2-0.5,0.3-0.7,0.4c-11.7,6.9-23.5,13.9-35.2,20.8c-8.4,5-16.7,9.9-25.1,14.9c-0.4,0.2-0.6,0.5-0.6,1
		c0,1.5,0,3,0,4.6c0,0.4,0.1,0.6,0.4,0.8c10,5.9,19.9,11.8,29.8,17.7c0.3,0.2,0.4,0.2,0.7,0c10.1-6,20.1-12,30.2-18
		c0.3-0.2,0.4-0.4,0.4-0.8c0-5.7,0-11.3,0-17C127.2,104.1,127.2,104,127.2,103.8z"/>
</g>
</svg>
