<?xml version="1.0" encoding="utf-8"?>
<!-- Generator: Adobe Illustrator 21.1.0, SVG Export Plug-In . SVG Version: 6.00 Build 0)  -->
<svg version="1.1" id="Layer_1" xmlns="http://www.w3.org/2000/svg" xmlns:xlink="http://www.w3.org/1999/xlink" x="0px" y="0px"
	 viewBox="0 0 192.8 192.8" style="enable-background:new 0 0 192.8 192.8;" xml:space="preserve">
<style type="text/css">
	.st0{fill:#C2C5D6;}
</style>
<g>
	<g>
		<path class="st0" d="M90.1,112l20.3-3.1l15.2-23h-22c-0.1,0-0.2,0.1-0.1,0.2l0.1,0.1c0.9,0.4,2.4,1.8-0.4,6.1L90.1,112z"/>
		<path class="st0" d="M129.6,85.9h-2.6c-0.1,0-0.1,0.1-0.1,0.2l0.1,0.1c0.9,0.4,2.4,1.8-0.4,6.1l-10.3,15.6l-0.1,0.1l13.6-2.1
			c1.4-0.2,2.7-0.7,3.9-1.3c3.8-2.2,6.3-5.3,8.8-8.8l6.5-9.9H129.6L129.6,85.9z"/>
		<path class="st0" d="M63.9,116l20.3-3.1l17.9-27H21c-0.4,0-0.7,0.2-0.7,0.4s0.2,0.4,0.7,0.5L77.1,96L63.9,116z"/>
		<polygon class="st0" points="43.4,94.7 18.9,131.7 51.5,126.7 69.7,99.3 		"/>
		<path class="st0" d="M90.4,61.1H79.7c-7.7,0.3-13.5,3.2-18.1,6.9c-3.5,2.9-6.5,6.4-9,10.1l-2.3,3.6h93.7c5.5-0.2,9.7-1.4,13.5-3.5
			c6.2-3.4,10.6-8.3,14.5-14l2.1-3.1C173.2,61.1,90.4,61.1,90.4,61.1"/>
		<path class="st0" d="M90.1,112l20.3-3.1l15.2-23h-22c-0.1,0-0.2,0.1-0.1,0.2l0.1,0.1c0.9,0.4,2.4,1.8-0.4,6.1L90.1,112z"/>
		<path class="st0" d="M129.6,85.9h-2.6c-0.1,0-0.1,0.1-0.1,0.2l0.1,0.1c0.9,0.4,2.4,1.8-0.4,6.1l-10.3,15.6l-0.1,0.1l13.6-2.1
			c1.4-0.2,2.7-0.7,3.9-1.3c3.8-2.2,6.3-5.3,8.8-8.8l6.5-9.9H129.6L129.6,85.9z"/>
		<path class="st0" d="M63.9,116l20.3-3.1l17.9-27H21c-0.4,0-0.7,0.2-0.7,0.4s0.2,0.4,0.7,0.5L77.1,96L63.9,116z"/>
		<polygon class="st0" points="43.4,94.7 18.9,131.7 51.5,126.7 69.7,99.3 		"/>
		<path class="st0" d="M90.4,61.1H79.7c-7.7,0.3-13.5,3.2-18.1,6.9c-3.5,2.9-6.5,6.4-9,10.1l-2.3,3.6h93.7c5.5-0.2,9.7-1.4,13.5-3.5
			c6.2-3.4,10.6-8.3,14.5-14l2.1-3.1C173.2,61.1,90.4,61.1,90.4,61.1"/>
	</g>
</g>
</svg>
