<?xml version="1.0" encoding="utf-8"?>
<!-- Generator: Adobe Illustrator 21.1.0, SVG Export Plug-In . SVG Version: 6.00 Build 0)  -->
<svg version="1.1" id="Layer_1" xmlns="http://www.w3.org/2000/svg" xmlns:xlink="http://www.w3.org/1999/xlink" x="0px" y="0px"
	 viewBox="0 0 192.8 192.8" style="enable-background:new 0 0 192.8 192.8;" xml:space="preserve">
<style type="text/css">
	.st0{clip-path:url(#SVGID_2_);}
	.st1{clip-path:url(#SVGID_5_);}
	.st2{clip-path:url(#SVGID_6_);}
	.st3{clip-path:url(#SVGID_9_);}
	.st4{clip-path:url(#SVGID_13_);}
	.st5{clip-path:url(#SVGID_14_);}
	.st6{fill:url(#path4149_2_);}
	.st7{fill:url(#path4149_4_);}
	.st8{clip-path:url(#SVGID_17_);}
	.st9{clip-path:url(#SVGID_18_);}
	.st10{fill:url(#path4161_2_);}
	.st11{fill:url(#path4161_4_);}
	.st12{clip-path:url(#SVGID_21_);}
	.st13{clip-path:url(#SVGID_22_);}
	.st14{fill:url(#path4173_2_);}
	.st15{fill:url(#path4173_4_);}
	.st16{clip-path:url(#SVGID_25_);}
	.st17{clip-path:url(#SVGID_26_);}
	.st18{fill:url(#path4185_2_);}
	.st19{fill:url(#path4185_4_);}
	.st20{fill:#C2C5D6;}
</style>
<g>
	<g>
		<g>
			<g>
				<defs>
					<path id="SVGID_1_" d="M212.9,307"/>
				</defs>
				<clipPath id="SVGID_2_">
					<use xlink:href="#SVGID_1_"  style="overflow:visible;"/>
				</clipPath>
				<g class="st0">
					<g>
						<g>
							<defs>
								<path id="SVGID_3_" d="M212.9,388.9"/>
							</defs>
							<defs>
								<path id="SVGID_4_" d="M212.9,307"/>
							</defs>
							<clipPath id="SVGID_5_">
								<use xlink:href="#SVGID_3_"  style="overflow:visible;"/>
							</clipPath>
							<clipPath id="SVGID_6_" class="st1">
								<use xlink:href="#SVGID_4_"  style="overflow:visible;"/>
							</clipPath>
							<g class="st2">
								<g>
									<g>
										<g>
											<g id="g4127_1_">
												<defs>
													<path id="SVGID_7_" d="M212.9,388.9"/>
												</defs>
												<defs>
													<path id="SVGID_8_" d="M212.9,307"/>
												</defs>
												<clipPath id="SVGID_9_">
													<use xlink:href="#SVGID_7_"  style="overflow:visible;"/>
												</clipPath>
												<clipPath id="SVGID_10_" class="st3">
													<use xlink:href="#SVGID_8_"  style="overflow:visible;"/>
												</clipPath>
											</g>
											<g>
												<g>
													<g>
														<g id="g4139_1_">
															<defs>
																<path id="SVGID_11_" d="M212.9,388.9"/>
															</defs>
															<defs>
																<path id="SVGID_12_" d="M212.9,307"/>
															</defs>
															<clipPath id="SVGID_13_">
																<use xlink:href="#SVGID_11_"  style="overflow:visible;"/>
															</clipPath>
															<clipPath id="SVGID_14_" class="st4">
																<use xlink:href="#SVGID_12_"  style="overflow:visible;"/>
															</clipPath>
															<g id="g4141_1_" class="st5">
																<g id="g4143_1_">
																	<g id="g4145_1_">
																		<g id="g4147_1_">
																			
																				<linearGradient id="path4149_2_" gradientUnits="userSpaceOnUse" x1="131.1521" y1="262.8196" x2="131.1521" y2="262.8196" gradientTransform="matrix(0 -21.3924 -21.3924 0 5835.2666 3194.5723)">
																				<stop  offset="0" style="stop-color:#729BC7"/>
																				<stop  offset="1" style="stop-color:#547395"/>
																			</linearGradient>
																			<path id="path4149_3_" class="st6" d="M212.9,388.9"/>
																			
																				<linearGradient id="path4149_4_" gradientUnits="userSpaceOnUse" x1="134.979" y1="262.8196" x2="134.979" y2="262.8196" gradientTransform="matrix(0 -21.3924 -21.3924 0 5835.2666 3194.5723)">
																				<stop  offset="0" style="stop-color:#729BC7"/>
																				<stop  offset="1" style="stop-color:#547395"/>
																			</linearGradient>
																			<path id="path4149_1_" class="st7" d="M212.9,307"/>
																		</g>
																	</g>
																</g>
															</g>
														</g>
														<g>
															<g>
																<g>
																	<g id="g4151_1_">
																		<defs>
																			<path id="SVGID_15_" d="M212.9,388.9"/>
																		</defs>
																		<defs>
																			<path id="SVGID_16_" d="M212.9,307"/>
																		</defs>
																		<clipPath id="SVGID_17_">
																			<use xlink:href="#SVGID_15_"  style="overflow:visible;"/>
																		</clipPath>
																		<clipPath id="SVGID_18_" class="st8">
																			<use xlink:href="#SVGID_16_"  style="overflow:visible;"/>
																		</clipPath>
																		<g id="g4153_1_" class="st9">
																			<g id="g4155_1_">
																				<g id="g4157_1_">
																					<g id="g4159_1_">
																						
																							<linearGradient id="path4161_2_" gradientUnits="userSpaceOnUse" x1="130.9542" y1="261.3151" x2="130.9542" y2="261.3151" gradientTransform="matrix(0 -21.5726 -21.5726 0 5850.1738 3213.9385)">
																							<stop  offset="0" style="stop-color:#729BC7"/>
																							<stop  offset="1" style="stop-color:#547395"/>
																						</linearGradient>
																						<path id="path4161_3_" class="st10" d="M212.9,388.9"/>
																						
																							<linearGradient id="path4161_4_" gradientUnits="userSpaceOnUse" x1="134.7491" y1="261.3151" x2="134.7491" y2="261.3151" gradientTransform="matrix(0 -21.5726 -21.5726 0 5850.1738 3213.9385)">
																							<stop  offset="0" style="stop-color:#729BC7"/>
																							<stop  offset="1" style="stop-color:#547395"/>
																						</linearGradient>
																						<path id="path4161_1_" class="st11" d="M212.9,307"/>
																					</g>
																				</g>
																			</g>
																		</g>
																	</g>
																	<g>
																		<g>
																			<g id="g3309_1_" transform="matrix(1.25,0,0,-1.25,-134.32894,522.81)">
																				<g id="g4163_1_">
																					<defs>
																						<path id="SVGID_19_" d="M212.9,388.9"/>
																					</defs>
																					<defs>
																						<path id="SVGID_20_" d="M212.9,307"/>
																					</defs>
																					<clipPath id="SVGID_21_">
																						<use xlink:href="#SVGID_19_"  style="overflow:visible;"/>
																					</clipPath>
																					<clipPath id="SVGID_22_" class="st12">
																						<use xlink:href="#SVGID_20_"  style="overflow:visible;"/>
																					</clipPath>
																					<g id="g4165_1_" class="st13">
																						<g id="g4167_1_">
																							<g id="g4169_1_">
																								<g id="g4171_1_">
																									
																										<linearGradient id="path4173_2_" gradientUnits="userSpaceOnUse" x1="129.0757" y1="264.3229" x2="129.0757" y2="264.3229" gradientTransform="matrix(0 -23.5246 -23.5246 0 6431.0083 3425.3657)">
																										<stop  offset="0" style="stop-color:#729BC7"/>
																										<stop  offset="1" style="stop-color:#547395"/>
																									</linearGradient>
																									<path id="path4173_3_" class="st14" d="M212.9,388.9"/>
																									
																										<linearGradient id="path4173_4_" gradientUnits="userSpaceOnUse" x1="132.5558" y1="264.3229" x2="132.5558" y2="264.3229" gradientTransform="matrix(0 -23.5246 -23.5246 0 6431.0083 3425.3657)">
																										<stop  offset="0" style="stop-color:#729BC7"/>
																										<stop  offset="1" style="stop-color:#547395"/>
																									</linearGradient>
																									<path id="path4173_1_" class="st15" d="M212.9,307"/>
																								</g>
																							</g>
																						</g>
																					</g>
																				</g>
																				<g id="g3313_1_">
																					<g id="g3315_1_">
																						<g id="g3835_1_">
																							<g id="g4175_1_">
																								<defs>
																									<path id="SVGID_23_" d="M212.9,388.9"/>
																								</defs>
																								<defs>
																									<path id="SVGID_24_" d="M212.9,307"/>
																								</defs>
																								<clipPath id="SVGID_25_">
																									<use xlink:href="#SVGID_23_"  style="overflow:visible;"/>
																								</clipPath>
																								<clipPath id="SVGID_26_" class="st16">
																									<use xlink:href="#SVGID_24_"  style="overflow:visible;"/>
																								</clipPath>
																								<g id="g4177_1_" class="st17">
																									<g id="g4179_1_">
																										<g id="g4181_1_">
																											<g id="g4183_1_">
																												
																													<linearGradient id="path4185_2_" gradientUnits="userSpaceOnUse" x1="216.7281" y1="264.7516" x2="216.7281" y2="264.7516" gradientTransform="matrix(0 -4.5805 -4.5805 0 1425.6084 1381.6293)">
																													<stop  offset="0" style="stop-color:#729BC7"/>
																													<stop  offset="1" style="stop-color:#547395"/>
																												</linearGradient>
																												<path id="path4185_3_" class="st18" d="M212.9,388.9"/>
																												
																													<linearGradient id="path4185_4_" gradientUnits="userSpaceOnUse" x1="234.6012" y1="264.7516" x2="234.6012" y2="264.7516" gradientTransform="matrix(0 -4.5805 -4.5805 0 1425.6084 1381.6293)">
																													<stop  offset="0" style="stop-color:#729BC7"/>
																													<stop  offset="1" style="stop-color:#547395"/>
																												</linearGradient>
																												<path id="path4185_1_" class="st19" d="M212.9,307"/>
																											</g>
																										</g>
																									</g>
																								</g>
																							</g>
																						</g>
																					</g>
																				</g>
																			</g>
																		</g>
																	</g>
																</g>
															</g>
														</g>
													</g>
												</g>
											</g>
										</g>
									</g>
								</g>
							</g>
						</g>
					</g>
				</g>
			</g>
		</g>
	</g>
</g>
<g>
	<g id="layer1_1_" transform="translate(1723.5 -356.44)">
		<path id="path3361_1_" class="st20" d="M-1643.6,478.5c-0.9-0.7-1.7-1.3-1.8-1.3c-0.3,0-5.9-0.8-8-1.1c-2.6-0.4-4.3-0.7-6-1.1
			c-2.1-0.5-1.9-0.2-1.9-3.6l0-2.7h0.3c0.2,0,1.4,0.2,2.8,0.4c8.8,1.5,19.4,2.5,25.2,2.2c2.3-0.1,3.4-0.2,6.5-0.8
			c6.6-1.1,11.7-2.4,15.8-4c2.6-1,6-2.9,8.3-4.6c3.6-2.7,5.4-5.7,5.4-8.9c0-2.7-1.1-5.1-3.6-7.6c-3.2-3.2-7.8-5.8-13.3-7.5
			c-3.2-1-6.2-1.6-9.9-2.1c-5.2-0.7-8-0.9-13.1-0.9c-11.4,0-20.2,1.3-28.3,4.3c-1.7,0.6-2.9,1.1-4.8,2.1c-4,2.1-6.4,4-8.3,6.6
			c-0.9,1.3-1,1.4-1.3,1.4c-0.2,0-5-3.8-5-3.9c0-0.1,1.1-1.7,1.9-2.7c1-1.2,2.9-3,4-3.9c1.7-1.3,4.1-2.7,7.1-4.2
			c3.1-1.5,4.8-2.1,8.8-3.3l1.7-0.5l1.3-1.5c0.7-0.8,1.5-1.5,1.6-1.6c0.3-0.1,3.1-0.6,5.8-1c5.7-0.8,10.6-1.1,17.9-1.1
			c5.8,0,8.5,0.1,13.7,0.8c6.4,0.7,11.5,2,18.5,4.5c3.4,1.2,5.4,2.1,8,3.6c3.5,1.9,5.9,3.7,8.2,5.9c2.2,2.2,3.5,3.9,5.5,7.8
			c1.3,2.6,1,2.5,6.7,2.5l4.1,0v2.6v2.6h-4.4h-4.4l-0.5,0.2c-0.6,0.3-1.3,1.1-1.8,2.1c-2.3,4.4-7,9.2-11.8,12.1
			c-5.4,3.3-9.9,5-17.2,6.8c-4.3,1-9,1.7-15.2,2.2c-1.9,0.2-3.6,0.2-9.6,0.2l-7.3,0.1L-1643.6,478.5L-1643.6,478.5z M-1639.7,459.2
			c-3.4-0.5-6-2-6.9-3.9c-0.2-0.5-0.3-0.6-0.3-1.4c0-0.8,0-1,0.3-1.4c0.8-1.6,2.8-2.9,5.4-3.5c1.6-0.4,2.7-0.5,4.8-0.5
			c2,0.1,3,0.2,4.5,0.7c2.1,0.7,3.7,1.9,4.4,3.2c0.3,0.6,0.3,0.7,0.3,1.4c0,0.7,0,0.9-0.3,1.4c-0.8,1.7-3.1,3.1-6.2,3.8
			C-1635,459.4-1638.3,459.5-1639.7,459.2L-1639.7,459.2z"/>
	</g>
</g>
</svg>
