<svg xmlns="http://www.w3.org/2000/svg" viewBox="0 0 420 88"><defs><style>.cls-1{fill:#c2c5d6;}</style></defs><title>Artboard 1</title><g id="Objects"><path id="path3324" class="cls-1" d="M40.52,19.73a2.68,2.68,0,0,1,.6,2.1l-1.5,12.71a2.68,2.68,0,0,1-2.3,2.31L24.56,38.4a2.67,2.67,0,0,1-2.25-.75l-13.06-13a2.67,2.67,0,0,1,0-3.81L23.31,6.82a3,3,0,0,1,4-.3l13,13Z"/><path id="path3324-2" data-name="path3324" class="cls-1" d="M70.37,38a2.69,2.69,0,0,1-2.11.6l-12.71-1.5a2.67,2.67,0,0,1-2.3-2.3L51.7,22a2.66,2.66,0,0,1,.75-2.25l13-13.07a2.69,2.69,0,0,1,3.81,0L83.28,20.77a3,3,0,0,1,.3,4l-13,13Z"/><path id="path3324-3" data-name="path3324" class="cls-1" d="M52.11,67.83a2.66,2.66,0,0,1-.6-2.1L53,53a2.68,2.68,0,0,1,2.31-2.3l12.76-1.55a2.65,2.65,0,0,1,2.25.75l13.06,13a2.68,2.68,0,0,1,0,3.8L69.33,80.74a3,3,0,0,1-4,.3l-13-13Z"/><path id="path3324-4" data-name="path3324" class="cls-1" d="M22.27,49.58a2.67,2.67,0,0,1,2.1-.6l12.71,1.5a2.67,2.67,0,0,1,2.3,2.3l1.55,12.76a2.64,2.64,0,0,1-.75,2.25l-13,13.06a2.66,2.66,0,0,1-3.8,0L9.36,66.79a3,3,0,0,1-.3-4l13-13Z"/><path class="cls-1" d="M117.51,24.36H132c8.58,0,11.58,3.72,11.58,9.84v5.94c0,6.18-3,9.9-11.58,9.9h-9.3V64.32h-5.16ZM131.79,29h-9.12V45.42h9.12c4.92,0,6.6-1.38,6.6-5.28V34.26C138.39,30.3,136.71,29,131.79,29Z"/><path class="cls-1" d="M150.63,64.32V23.16l5-.72V64.32Z"/><path class="cls-1" d="M186,64.32h-4.26l-.3-2.16a16.63,16.63,0,0,1-9.48,2.76c-5.46,0-7.74-3.24-7.74-8.4,0-6.06,3.06-8.22,8.94-8.22h7.8V43.74c0-3.66-1.62-4.92-6.36-4.92a48.32,48.32,0,0,0-8.76,1l-.54-4a41.2,41.2,0,0,1,9.6-1.26c8.34,0,11.1,3.24,11.1,9.48Zm-5-11.82h-7.44c-3.12,0-4.26,1-4.26,3.9s.54,4.2,4.14,4.2a14.6,14.6,0,0,0,7.56-2.4Z"/><path class="cls-1" d="M202.11,64.32H200L190.53,35.1h5l8,25.2,8.1-25.2h5l-9.66,29.22-4.14,11.82H198Z"/><path class="cls-1" d="M232.29,64.92a33.64,33.64,0,0,1-12.48-2.4l1.32-5.94a37.65,37.65,0,0,0,11.28,1.86c5.46,0,6.36-1.14,6.36-5,0-4.44-.12-4.8-7.32-6.36-9.66-2.16-11-4-11-12.48,0-7.26,3.3-10.86,13.44-10.86a54.53,54.53,0,0,1,11.64,1.32l-.84,6.36A52.48,52.48,0,0,0,234,30.24c-5.1,0-6,1.08-6,4.56,0,4.56.12,4.68,7,6.36,10.74,2.58,11.28,4.32,11.28,12.3C246.33,61,244.11,64.92,232.29,64.92Z"/><path class="cls-1" d="M269.07,63.78a20.3,20.3,0,0,1-6.42,1.14c-5.34,0-8-2.52-8-7.74V40.92h-4.38V35.1h4.38V27.84l7.32-1V35.1h7.5L269,40.92h-7v15.3a2.31,2.31,0,0,0,2.64,2.58,14.09,14.09,0,0,0,3.66-.6Z"/><path class="cls-1" d="M274.83,31V22.5h7.32V31Zm0,33.36V35.1h7.32V64.32Z"/><path class="cls-1" d="M289.23,53.7v-8c0-7.86,3.42-11.22,12.6-11.22A25.16,25.16,0,0,1,309,35.58l-.9,6A26.61,26.61,0,0,0,302,40.8c-4.2,0-5.46,1.26-5.46,4.86v8.1c0,3.6,1.26,4.86,5.46,4.86a24.7,24.7,0,0,0,6.06-.78l.9,6a24.1,24.1,0,0,1-7.14,1.08C292.65,64.92,289.23,61.56,289.23,53.7Z"/><path class="cls-1" d="M315.69,64.32V23.16l7.32-1V64.32ZM340.53,35.1,332,49.56l8.94,14.76h-8L324,49.56l8.34-14.46Z"/><path class="cls-1" d="M357.27,58.92a30.63,30.63,0,0,0,8.94-1.38l1.14,5.52a31.37,31.37,0,0,1-10.74,1.86c-9.18,0-12.36-4.26-12.36-11.28V45.9c0-6.18,2.76-11.4,12.12-11.4S367.83,40,367.83,46.26V52.5H351.57V54C351.57,57.54,352.83,58.92,357.27,58.92Zm-5.7-12.3h9.3V45.18c0-2.76-.84-4.68-4.44-4.68s-4.86,1.92-4.86,4.68Z"/><path class="cls-1" d="M389.49,41.22a57.3,57.3,0,0,0-7.74,4.26V64.32h-7.32V35.1h6.18l.48,3.24a32.73,32.73,0,0,1,7.68-3.84Z"/><path class="cls-1" d="M403.47,64.92a34.44,34.44,0,0,1-10.08-1.68l1-5.58a32.71,32.71,0,0,0,8.7,1.26c3.24,0,3.72-.72,3.72-2.94,0-1.8-.36-2.7-5.1-3.84-7.14-1.74-8-3.54-8-9.18,0-5.88,2.58-8.46,10.92-8.46a38.45,38.45,0,0,1,8.76,1l-.72,5.82a51.46,51.46,0,0,0-8-.84c-3.18,0-3.72.72-3.72,2.52,0,2.34.18,2.52,4.14,3.54,8.16,2.16,8.94,3.24,8.94,9.24C414,61.44,412.29,64.92,403.47,64.92Z"/></g></svg>